<svg width="91" height="25" viewBox="0 0 91 25" fill="none" xmlns="http://www.w3.org/2000/svg">
<path fill-rule="evenodd" clip-rule="evenodd" d="M82.6027 11.4286H82.7921H84.2196H84.4092C84.4092 6.03997 87.2051 1.65634 90.6431 1.65634V0C87.4798 0 84.7481 2.73638 83.5058 6.66832C82.2634 2.73638 79.5315 0 76.3686 0V1.65634C79.8063 1.65634 82.6027 6.03997 82.6027 11.4286Z" fill="#28D8C3"/>
<path fill-rule="evenodd" clip-rule="evenodd" d="M56.3746 15.9347C56.3639 16.789 56.2776 17.5517 56.0827 18.2227C55.8762 18.9309 55.5878 19.5265 55.2142 20.0059C54.8414 20.4871 54.3888 20.8539 53.8543 21.1072C53.3729 21.3342 52.8385 21.4585 52.2502 21.4812H52.0642C51.8783 21.4812 51.6906 21.4749 51.5029 21.464C50.2185 21.3886 48.9547 21.0881 48.5667 20.9901V19.7017V15.9347V12.4164C49.1056 11.6928 49.6966 11.1326 50.3388 10.7358C50.981 10.34 51.7292 10.1411 52.5825 10.1411C53.1807 10.1411 53.7151 10.2464 54.1858 10.4544C54.6555 10.6623 55.0534 10.9909 55.3768 11.4422C55.7001 11.8943 55.948 12.4709 56.1196 13.1745C56.2911 13.8782 56.3764 14.7207 56.3764 15.7022C56.3764 15.7812 56.3755 15.8584 56.3746 15.9347ZM59.0827 15.7912L59.0826 15.7685C59.0824 15.7615 59.0822 15.7546 59.0818 15.7476C59.0818 15.7396 59.082 15.7319 59.0823 15.7241C59.0825 15.7169 59.0827 15.7097 59.0827 15.7022C59.0827 14.4529 58.9507 13.3507 58.6857 12.3937C58.4207 11.4377 58.0435 10.635 57.5531 9.98586C57.0618 9.33669 56.4699 8.84822 55.7729 8.52136C55.0768 8.1945 54.2971 8.03017 53.434 8.03017C52.4047 8.03017 51.4903 8.25079 50.6918 8.69205C49.8915 9.13331 49.1838 9.7153 48.5658 10.4389V1.42856H46.0186H45.9332H43.6078V2.71238C43.6078 2.97568 43.7982 3.20993 44.056 3.26168C44.2788 3.30617 45.5865 3.52589 45.9332 3.584V20.3055V22.4573V22.7088C45.9332 22.7088 49.852 23.5377 52.508 23.5377C53.4394 23.5377 54.3043 23.3643 55.1046 23.0175C55.9031 22.6706 56.5965 22.1667 57.1848 21.5085C57.774 20.8493 58.2366 20.0385 58.5752 19.077C58.9138 18.1164 59.0827 17.0206 59.0827 15.7912ZM41.138 8.00448C41.9023 8.00448 42.5841 8.18334 43.1823 8.54016L42.8436 10.5176C42.7754 10.7646 42.6478 10.889 42.461 10.889C42.276 10.889 42.0398 10.8418 41.7559 10.7474C41.4712 10.6529 41.0742 10.6066 40.564 10.6066C38.8584 10.6066 37.583 11.6526 36.7405 13.7435V21.1623L37.2472 21.2658L38.4165 21.5046C38.7111 21.5636 38.8584 21.747 38.8584 22.0548V23.3341H32.0034V22.0548C32.0034 21.747 32.1507 21.5636 32.4453 21.5046L34.1222 21.1623V10.4423C33.1809 10.2543 32.6214 10.1409 32.4453 10.1009C32.1507 10.041 32.0034 9.85757 32.0034 9.55069V8.27232H34.1222H35.6222C35.9069 8.27232 36.1027 8.32679 36.2105 8.43575C36.3183 8.5447 36.392 8.73264 36.4315 9.00048L36.6075 11.3493C37.6961 9.11942 39.206 8.00448 41.138 8.00448ZM19.8404 14.1601C20.0174 12.8518 20.4682 11.8276 21.194 11.0895C21.9197 10.3513 22.9149 9.98178 24.1796 9.98178C24.7778 9.98178 25.3104 10.0835 25.7756 10.2868C26.2418 10.4893 26.6361 10.7771 26.9594 11.1494C27.2837 11.5207 27.5289 11.962 27.6951 12.4723C27.8621 12.9825 27.9448 13.5454 27.9448 14.1601H19.8404ZM28.5483 9.79566C27.9987 9.22547 27.3475 8.78966 26.5912 8.48732C25.8367 8.18498 25.0131 8.03426 24.1212 8.03426C23.0425 8.03426 22.0715 8.22493 21.2084 8.60626C20.3461 8.9885 19.615 9.51329 19.0168 10.1824C18.4186 10.8516 17.9605 11.6424 17.6417 12.554C17.3237 13.4664 17.1638 14.447 17.1638 15.4975C17.1638 16.7968 17.3399 17.9462 17.6929 18.9477C18.0467 19.9482 18.5389 20.788 19.1713 21.4672C19.8036 22.1463 20.5545 22.6611 21.4221 23.0134C22.2898 23.3657 23.2383 23.5418 24.2676 23.5418C24.8074 23.5418 25.3517 23.4946 25.9005 23.4002C26.4493 23.3067 26.9819 23.165 27.4957 22.9771C28.0112 22.7882 28.4945 22.5476 28.9453 22.2553C29.3962 21.9629 29.7843 21.6188 30.1076 21.222L29.372 20.256C29.2543 20.0871 29.0873 20.0027 28.8717 20.0027C28.7046 20.0027 28.5061 20.0799 28.2762 20.2333C28.0454 20.3867 27.7588 20.5529 27.4157 20.7318C27.0726 20.9097 26.6631 21.0759 26.187 21.2302C25.7119 21.3827 25.1451 21.4599 24.4885 21.4599C23.7826 21.4599 23.1449 21.3437 22.5763 21.1104C22.0077 20.8779 21.5173 20.5257 21.1051 20.0553C20.6937 19.5841 20.3703 18.9967 20.135 18.293C19.8997 17.5894 19.7722 16.7623 19.7524 15.8098H29.6666C29.9109 15.8098 30.078 15.7408 30.166 15.6019C30.254 15.463 30.298 15.1852 30.298 14.7693C30.298 13.6989 30.1444 12.7446 29.8355 11.9066C29.5265 11.0695 29.0971 10.3658 28.5483 9.79566ZM16.5617 9.55042V8.27205H15.5467H9.95731V9.55042C9.95731 9.85822 10.1046 10.0416 10.3992 10.1015C11.2911 10.2786 11.8498 10.3939 12.0761 10.4429L8.89834 18.5163C8.7223 18.9721 8.52649 19.6812 8.31003 20.6427C8.11423 19.6712 7.93279 18.9621 7.76573 18.5163L4.60411 10.4284C5.51577 10.2495 6.06007 10.1406 6.23612 10.1015C6.53072 10.0416 6.67802 9.85822 6.67802 9.55042V8.27205H0V9.55042C0 9.85822 0.147303 10.0416 0.44101 10.1015C0.48053 10.1106 0.68891 10.1533 1.06615 10.2268C1.44429 10.3013 1.71554 10.3585 1.8826 10.3984L7.10377 23.3338H9.47229L14.6791 10.3984C15.5324 10.2196 16.0129 10.1206 16.1198 10.1015C16.4144 10.0416 16.5617 9.85822 16.5617 9.55042ZM61.8343 4.26522C61.7364 4.04278 61.687 3.80217 61.687 3.54432C61.687 3.28737 61.7364 3.04132 61.8343 2.80798C61.9322 2.57555 62.0669 2.37217 62.2394 2.19876C62.41 2.02534 62.6067 1.88915 62.8277 1.79018C63.0477 1.69031 63.2858 1.64128 63.5399 1.64128C63.7959 1.64128 64.0357 1.69031 64.2621 1.79018C64.4866 1.88915 64.6851 2.02534 64.8576 2.19876C65.0282 2.37217 65.1657 2.57555 65.269 2.80798C65.3713 3.04132 65.4234 3.28737 65.4234 3.54432C65.4234 3.80217 65.3713 4.04278 65.269 4.26522C65.1666 4.48857 65.0282 4.68741 64.8576 4.85992C64.6851 5.03424 64.4866 5.17043 64.2621 5.2694C64.0357 5.36746 63.7959 5.41739 63.5399 5.41739C63.2858 5.41739 63.0477 5.36746 62.8277 5.2694C62.6067 5.17043 62.41 5.03424 62.2394 4.85992C62.0669 4.68741 61.9322 4.48857 61.8343 4.26522ZM66.9575 22.0499V23.3328H60.0945V22.0499C60.0945 21.7866 60.2849 21.5523 60.5427 21.5006C60.8005 21.4488 62.2169 21.1637 62.2169 21.1637V10.4419C62.2169 10.4419 60.8005 10.1568 60.5427 10.1051C60.2849 10.0533 60.0945 9.81908 60.0945 9.55487V8.27195H64.8351V21.1637C64.8351 21.1637 66.2516 21.4488 66.5093 21.5006C66.7671 21.5523 66.9575 21.7866 66.9575 22.0499ZM69.816 19.7054C69.816 20.9547 70.1331 21.9117 70.7654 22.5754C71.3977 23.2391 72.3022 23.5714 73.4788 23.5714C74.1552 23.5714 74.8118 23.4498 75.4504 23.2073C76.0872 22.9649 76.6315 22.6299 77.0824 22.2032L76.3171 20.9393C76.2102 20.7713 76.0872 20.6869 75.9507 20.6869C75.8716 20.6869 75.7809 20.7241 75.6776 20.7986C75.5752 20.873 75.4504 20.9547 75.3031 21.0437C75.1558 21.1327 74.9815 21.2144 74.7803 21.2889C74.5791 21.3633 74.342 21.4015 74.0672 21.4015C73.5866 21.4015 73.1941 21.2471 72.8905 20.9393C72.5869 20.6324 72.4342 20.1612 72.4342 19.5275V10.4871H76.7006V8.56958H72.4342V3.38072H71.1103C70.9442 3.38072 70.8067 3.42702 70.699 3.52145C70.5912 3.61587 70.5274 3.73754 70.5085 3.88553L69.905 8.53962L67.4637 8.85195V9.90788C67.4637 10.1058 67.5176 10.252 67.6254 10.3464C67.7322 10.4408 67.8652 10.4871 68.0223 10.4871H69.816V19.7054Z" fill="white"/>
</svg>
